<svg width="64" height="64" viewBox="0 0 64 64" fill="none" xmlns="http://www.w3.org/2000/svg">
  <rect width="64" height="64" rx="12" fill="#455A64"/>
  <path d="M32 16C25.3726 16 20 21.3726 20 28C20 34.6274 25.3726 40 32 40C38.6274 40 44 34.6274 44 28C44 21.3726 38.6274 16 32 16ZM32 36C27.5817 36 24 32.4183 24 28C24 23.5817 27.5817 20 32 20C36.4183 20 40 23.5817 40 28C40 32.4183 36.4183 36 32 36Z" fill="white"/>
  <path d="M42 38L48 44M48 44L42 50M48 44H36" stroke="white" stroke-width="4" stroke-linecap="round" stroke-linejoin="round"/>
  <path d="M22 26L16 20M16 20L22 14M16 20H28" stroke="white" stroke-width="4" stroke-linecap="round" stroke-linejoin="round"/>
</svg>