<svg width="64" height="64" viewBox="0 0 64 64" fill="none" xmlns="http://www.w3.org/2000/svg">
  <rect width="64" height="64" rx="12" fill="#2F1B5C"/>
  <path d="M44 24H20a4 4 0 0 0-4 4v16a4 4 0 0 0 4 4h24a4 4 0 0 0 4-4V28a4 4 0 0 0-4-4z" fill="#4A2B82"/>
  <circle cx="32" cy="34" r="10" fill="url(#planetGradient)"/>
  <path d="M36 34l-6 4v-8l6 4z" fill="#E8E6F9"/>
  <path d="M44 18l2 2v6h-6v-6l2-2z" fill="#A98AFF"/>
  <path d="M24 46h-4v-4h-4v-6l6-3 6 3v6h-4v4h-4v-4z" fill="#A98AFF"/>
  <circle cx="20" cy="20" r="2" fill="#E8E6F9"/>
  <circle cx="44" cy="44" r="2" fill="#E8E6F9"/>
  <path d="M32 8l4 4-4 4-4-4 4-4z" fill="#E8E6F9"/>
  <defs>
    <radialGradient id="planetGradient" cx="0" cy="0" r="1" gradientUnits="userSpaceOnUse" gradientTransform="translate(32 34) rotate(90) scale(10)">
      <stop stop-color="#6B46C1"/>
      <stop offset="1" stop-color="#4A2B82"/>
    </radialGradient>
  </defs>
  <path d="M32 24a10 10 0 0 1 10 10 10 10 0 0 1-10 10" stroke="#A98AFF" stroke-width="2" fill="none" stroke-dasharray="3 3"/>
</svg>